<svg id="Layer_1" data-name="Layer 1" xmlns="http://www.w3.org/2000/svg" viewBox="0 0 2798 2798"><defs><style>.cls-1{fill:none;stroke:#fff;stroke-miterlimit:10;stroke-width:7px;}</style></defs><title>circle</title><line class="cls-1" x1="1399" y1="1399" x2="1399"/><line class="cls-1" x1="1399" y1="1399" x2="1252.76" y2="7.66"/><line class="cls-1" x1="1399" y1="1399" x2="1108.13" y2="30.57"/><line class="cls-1" x1="1399" y1="1399" x2="966.69" y2="68.47"/><line class="cls-1" x1="1399" y1="1399" x2="829.98" y2="120.95"/><line class="cls-1" x1="1399" y1="1399" x2="699.5" y2="187.43"/><line class="cls-1" x1="1399" y1="1399" x2="576.69" y2="267.19"/><line class="cls-1" x1="1399" y1="1399" x2="462.89" y2="359.34"/><line class="cls-1" x1="1399" y1="1399" x2="359.34" y2="462.89"/><line class="cls-1" x1="1399" y1="1399" x2="267.19" y2="576.69"/><line class="cls-1" x1="1399" y1="1399" x2="187.43" y2="699.5"/><line class="cls-1" x1="1399" y1="1399" x2="120.95" y2="829.98"/><line class="cls-1" x1="1399" y1="1399" x2="68.47" y2="966.69"/><line class="cls-1" x1="1399" y1="1399" x2="30.57" y2="1108.13"/><line class="cls-1" x1="1399" y1="1399" x2="7.66" y2="1252.76"/><line class="cls-1" x1="1399" y1="1399" y2="1399"/><line class="cls-1" x1="1399" y1="1399" x2="7.66" y2="1545.24"/><line class="cls-1" x1="1399" y1="1399" x2="30.57" y2="1689.87"/><line class="cls-1" x1="1399" y1="1399" x2="68.47" y2="1831.31"/><line class="cls-1" x1="1399" y1="1399" x2="120.95" y2="1968.02"/><line class="cls-1" x1="1399" y1="1399" x2="187.43" y2="2098.5"/><line class="cls-1" x1="1399" y1="1399" x2="267.19" y2="2221.31"/><line class="cls-1" x1="1399" y1="1399" x2="359.34" y2="2335.11"/><line class="cls-1" x1="1399" y1="1399" x2="462.89" y2="2438.66"/><line class="cls-1" x1="1399" y1="1399" x2="576.69" y2="2530.81"/><line class="cls-1" x1="1399" y1="1399" x2="699.5" y2="2610.57"/><line class="cls-1" x1="1399" y1="1399" x2="829.98" y2="2677.05"/><line class="cls-1" x1="1399" y1="1399" x2="966.69" y2="2729.53"/><line class="cls-1" x1="1399" y1="1399" x2="1108.13" y2="2767.43"/><line class="cls-1" x1="1399" y1="1399" x2="1252.76" y2="2790.34"/><line class="cls-1" x1="1399" y1="1399" x2="1399" y2="2798"/><line class="cls-1" x1="1399" y1="1399" x2="1545.24" y2="2790.34"/><line class="cls-1" x1="1399" y1="1399" x2="1689.87" y2="2767.43"/><line class="cls-1" x1="1399" y1="1399" x2="1831.31" y2="2729.53"/><line class="cls-1" x1="1399" y1="1399" x2="1968.02" y2="2677.05"/><line class="cls-1" x1="1399" y1="1399" x2="2098.5" y2="2610.57"/><line class="cls-1" x1="1399" y1="1399" x2="2221.31" y2="2530.81"/><line class="cls-1" x1="1399" y1="1399" x2="2335.11" y2="2438.66"/><line class="cls-1" x1="1399" y1="1399" x2="2438.66" y2="2335.11"/><line class="cls-1" x1="1399" y1="1399" x2="2530.81" y2="2221.31"/><line class="cls-1" x1="1399" y1="1399" x2="2610.57" y2="2098.5"/><line class="cls-1" x1="1399" y1="1399" x2="2677.05" y2="1968.02"/><line class="cls-1" x1="1399" y1="1399" x2="2729.53" y2="1831.31"/><line class="cls-1" x1="1399" y1="1399" x2="2767.43" y2="1689.87"/><line class="cls-1" x1="1399" y1="1399" x2="2790.34" y2="1545.24"/><line class="cls-1" x1="1399" y1="1399" x2="2798" y2="1399"/><line class="cls-1" x1="1399" y1="1399" x2="2790.34" y2="1252.76"/><line class="cls-1" x1="1399" y1="1399" x2="2767.43" y2="1108.13"/><line class="cls-1" x1="1399" y1="1399" x2="2729.53" y2="966.69"/><line class="cls-1" x1="1399" y1="1399" x2="2677.05" y2="829.98"/><line class="cls-1" x1="1399" y1="1399" x2="2610.57" y2="699.5"/><line class="cls-1" x1="1399" y1="1399" x2="2530.81" y2="576.69"/><line class="cls-1" x1="1399" y1="1399" x2="2438.66" y2="462.89"/><line class="cls-1" x1="1399" y1="1399" x2="2335.11" y2="359.34"/><line class="cls-1" x1="1399" y1="1399" x2="2221.31" y2="267.19"/><line class="cls-1" x1="1399" y1="1399" x2="2098.5" y2="187.43"/><line class="cls-1" x1="1399" y1="1399" x2="1968.02" y2="120.95"/><line class="cls-1" x1="1399" y1="1399" x2="1831.31" y2="68.47"/><line class="cls-1" x1="1399" y1="1399" x2="1689.87" y2="30.57"/><line class="cls-1" x1="1399" y1="1399" x2="1545.24" y2="7.66"/></svg>